<svg width="300" height="300" viewBox="0 0 300 300" fill="none" xmlns="http://www.w3.org/2000/svg">
<path d="M300 229.439H0V229.589H300V229.439Z" fill="#EBEBEB"/>
<path d="M257.825 233.525H199.267V233.675H257.825V233.525Z" fill="#EBEBEB"/>
<path d="M201.4 236.992H173.4V237.142H201.4V236.992Z" fill="#EBEBEB"/>
<path d="M269.941 239.096H258.425V239.246H269.941V239.096Z" fill="#EBEBEB"/>
<path d="M131.4 237.067H75.8838V237.217H131.4V237.067Z" fill="#EBEBEB"/>
<path d="M70.542 237.067H58.6002V237.217H70.542V237.067Z" fill="#EBEBEB"/>
<path d="M54.3924 234.533H34.6752V234.683H54.3924V234.533Z" fill="#EBEBEB"/>
<path d="M142.208 202.68H26.349C24.4608 202.68 22.9242 201.143 22.9242 199.255V36.396C22.9242 34.5078 24.4608 32.9712 26.349 32.9712H142.208C144.096 32.9712 145.633 34.5078 145.633 36.396V199.255C145.633 201.143 144.096 202.68 142.208 202.68ZM26.349 33.1218C24.543 33.1218 23.0742 34.5906 23.0742 36.3966V199.256C23.0742 201.062 24.543 202.531 26.349 202.531H142.208C144.014 202.531 145.483 201.062 145.483 199.256V36.396C145.483 34.5906 144.014 33.1212 142.208 33.1212L26.349 33.1218Z" fill="#EBEBEB"/>
<path d="M271.986 202.68H156.127C154.239 202.68 152.703 201.143 152.703 199.255V36.396C152.703 34.5078 154.24 32.9712 156.127 32.9712H271.986C273.875 32.9712 275.411 34.5078 275.411 36.396V199.255C275.411 201.143 273.875 202.68 271.986 202.68ZM156.127 33.1218C154.322 33.1218 152.853 34.5906 152.853 36.3966V199.256C152.853 201.062 154.322 202.531 156.127 202.531H271.986C273.792 202.531 275.261 201.062 275.261 199.256V36.396C275.261 34.5906 273.792 33.1212 271.986 33.1212L156.127 33.1218Z" fill="#EBEBEB"/>
<path d="M234.644 223.917H53.4204L42.6138 100.986H223.837L234.644 223.917Z" fill="#F0F0F0"/>
<path d="M50.2182 227.833L53.4204 223.917L42.6138 100.986L39.417 104.962L50.2182 227.833Z" fill="#E0E0E0"/>
<path d="M55.815 219.25L45.8604 106.011C45.7554 104.818 46.6956 103.791 47.8938 103.791H219.409C220.467 103.791 221.35 104.599 221.443 105.653L231.397 218.892C231.502 220.085 230.562 221.112 229.364 221.112H57.8484C56.7906 221.112 55.908 220.303 55.815 219.25Z" fill="#FAFAFA"/>
<path d="M78.8916 223.917H51.5874L49.6566 229.439H76.9608L78.8916 223.917Z" fill="#E0E0E0"/>
<path d="M78.8916 223.917H258.425L256.494 229.439H76.9608L78.8916 223.917Z" fill="#F5F5F5"/>
<path d="M152.821 223.917H187.236L186.866 227.533H152.451L152.821 223.917Z" fill="#E0E0E0"/>
<path d="M204.97 92.9185H248.452C252.055 116.772 235.392 136.4 211.538 136.4C203.906 136.4 196.103 134.391 188.918 130.575L204.97 92.9185Z" fill="#E0E0E0"/>
<path d="M204.97 92.9184L227.888 59.6094C233.369 63.6906 238.05 68.7882 241.602 74.5422C245.155 80.2962 247.493 86.5692 248.452 92.9184H204.97Z" fill="#EBEBEB"/>
<path d="M204.97 92.9184L198.402 49.4364C203.474 49.4364 208.642 50.3238 213.67 52.0584C218.698 53.793 223.51 56.3484 227.888 59.6088L204.97 92.9184Z" fill="#E6E6E6"/>
<path d="M204.97 92.9184L188.917 130.574C174.309 122.817 163.832 108.433 161.488 92.9184C157.885 69.0648 174.548 49.4364 198.402 49.4364L204.97 92.9184Z" fill="#F0F0F0"/>
<path d="M151.293 170.514H189.864C190.373 173.885 190.438 177.241 190.058 180.497C189.677 183.752 188.854 186.88 187.61 189.799L151.293 170.514Z" fill="#EBEBEB"/>
<path d="M151.293 170.514L152.253 132.529C161.419 134.104 170.218 138.776 177.095 145.721C183.971 152.666 188.494 161.449 189.864 170.515H151.293V170.514Z" fill="#E0E0E0"/>
<path d="M151.293 170.514L117.041 183.706C114.863 179.478 113.402 175.013 112.722 170.514C109.526 149.354 124.307 131.943 145.467 131.943C147.712 131.943 149.983 132.139 152.254 132.529L151.293 170.514Z" fill="#F0F0F0"/>
<path d="M151.293 170.514L187.61 189.8C182.529 201.719 170.882 209.085 157.12 209.085C140.943 209.085 124.87 198.908 117.042 183.706L151.293 170.514Z" fill="white"/>
<path d="M150 256.537C214.249 256.537 266.333 253.495 266.333 249.743C266.333 245.991 214.249 242.949 150 242.949C85.7509 242.949 33.6666 245.991 33.6666 249.743C33.6666 253.495 85.7509 256.537 150 256.537Z" fill="#F5F5F5"/>
<path d="M144.351 143.632H90.306C86.8764 143.632 83.8416 140.826 83.562 137.396L80.8566 104.165C80.5776 100.735 83.1552 97.929 86.5848 97.929H140.63C144.059 97.929 147.094 100.735 147.373 104.165L150.079 137.396C150.359 140.826 147.781 143.632 144.351 143.632Z" fill="white"/>
<path d="M144.351 143.891H90.306C86.7354 143.891 83.5938 140.987 83.3034 137.417L80.598 104.186C80.457 102.449 81.0066 100.813 82.146 99.5766C83.2806 98.346 84.8574 97.6686 86.5854 97.6686H140.63C144.201 97.6686 147.342 100.573 147.633 104.143L150.338 137.375C150.479 139.111 149.93 140.747 148.79 141.983C147.656 143.214 146.08 143.891 144.351 143.891ZM86.5854 98.1888C85.0038 98.1888 83.5626 98.8074 82.5282 99.9294C81.4884 101.058 80.9868 102.554 81.1158 104.144L83.8212 137.375C84.0906 140.682 86.9994 143.372 90.306 143.372H144.351C145.933 143.372 147.374 142.754 148.408 141.632C149.448 140.503 149.95 139.007 149.821 137.418L147.115 104.186C146.846 100.879 143.937 98.1888 140.63 98.1888H86.5854Z" fill="#3C3174"/>
<path d="M129.684 133.93C127.565 136.237 124.826 137.894 121.74 138.742L120.845 136.18C127.499 134.361 132.004 128.156 131.404 120.782C131.045 116.38 128.938 112.394 125.819 109.51L127.543 107.634C135.344 114.848 136.31 126.717 129.684 133.93Z" fill="#E0E0E0"/>
<path d="M127.543 107.635L125.82 109.511C122.701 106.627 118.57 104.844 114.169 104.844C109.767 104.844 105.927 106.631 103.283 109.516L101.248 107.635C104.452 104.147 109.026 102.188 113.953 102.188C118.884 102.188 123.773 104.147 127.543 107.635Z" fill="#5570AD"/>
<path d="M121.741 138.742C115.472 140.456 108.463 138.617 103.389 133.93C95.5938 126.716 94.6278 114.848 101.248 107.635L103.283 109.516C100.633 112.4 99.1752 116.38 99.5334 120.782C100.25 129.58 107.965 136.715 116.764 136.715C118.187 136.715 119.56 136.528 120.846 136.18L121.741 138.742Z" fill="#3C3174"/>
<path d="M70.7329 44.2128H66.3997V44.7318H70.7329V44.2128Z" fill="#3C3174"/>
<path d="M62.1997 44.2128H52.3333V44.7318H62.1997V44.2128Z" fill="#3C3174"/>
<path d="M108.086 91.9764H54.0414C50.6118 91.9764 47.577 89.1702 47.2974 85.7406L44.592 52.509C44.313 49.0794 46.8906 46.2732 50.3202 46.2732H104.365C107.795 46.2732 110.83 49.0794 111.109 52.509L113.814 85.7406C114.094 89.1702 111.516 91.9764 108.086 91.9764Z" fill="white"/>
<path d="M108.086 92.2362H54.0408C50.4702 92.2362 47.3286 89.3316 47.0382 85.7616L44.3334 52.53C44.1918 50.7942 44.7414 49.1574 45.8814 47.9214C47.016 46.6902 48.5928 46.0128 50.3208 46.0128H104.366C107.936 46.0128 111.078 48.9174 111.368 52.4874L114.074 85.719C114.215 87.4554 113.665 89.0916 112.526 90.3282C111.391 91.5588 109.814 92.2362 108.086 92.2362ZM50.3202 46.5324C48.7386 46.5324 47.298 47.151 46.263 48.2736C45.2232 49.4016 44.7216 50.898 44.8512 52.4874L47.5566 85.719C47.826 89.0262 50.7348 91.7166 54.0414 91.7166H108.087C109.668 91.7166 111.109 91.0986 112.144 89.976C113.184 88.8474 113.686 87.351 113.556 85.761L110.851 52.5294C110.581 49.2222 107.672 46.5318 104.366 46.5318L50.3202 46.5324Z" fill="#3C3174"/>
<path d="M49.4802 55.8084H78.1194L77.889 52.9794H49.2498L49.4802 55.8084Z" fill="#E0E0E0"/>
<path d="M106.759 55.8084H78.1193L77.8889 52.9794H106.528L106.759 55.8084Z" fill="#3C3174"/>
<path d="M50.0795 63.174H58.2497L58.0193 60.3444H49.8491L50.0795 63.174Z" fill="#E0E0E0"/>
<path d="M107.358 63.174H58.2497L58.0193 60.3444H107.127L107.358 63.174Z" fill="#3C3174"/>
<path d="M50.6789 70.539H76.1717L75.9413 67.71H50.4485L50.6789 70.539Z" fill="#E0E0E0"/>
<path d="M107.958 70.539H76.1718L75.9414 67.71H107.728L107.958 70.539Z" fill="#3C3174"/>
<path d="M51.279 77.9046H94.7862L94.5558 75.075H51.0486L51.279 77.9046Z" fill="#E0E0E0"/>
<path d="M108.557 77.9046H94.7862L94.5558 75.075H108.327L108.557 77.9046Z" fill="#3C3174"/>
<path d="M51.8783 85.2695H72.0011L71.7707 82.4406H51.6479L51.8783 85.2695Z" fill="#E0E0E0"/>
<path d="M109.157 85.2695H72.0012L71.7708 82.4406H108.926L109.157 85.2695Z" fill="#3C3174"/>
<path d="M181.969 91.9764H127.924C124.494 91.9764 121.459 89.1702 121.18 85.7406L118.475 52.509C118.196 49.0794 120.773 46.2732 124.203 46.2732H178.248C181.678 46.2732 184.712 49.0794 184.992 52.509L187.697 85.7406C187.976 89.1702 185.398 91.9764 181.969 91.9764Z" fill="white"/>
<path d="M181.969 92.2362H127.924C124.353 92.2362 121.211 89.3316 120.921 85.7616L118.216 52.53C118.075 50.7942 118.624 49.1574 119.764 47.9208C120.898 46.6902 122.474 46.0128 124.202 46.0128H178.248C181.819 46.0128 184.96 48.9174 185.251 52.4874L187.956 85.719C188.098 87.4548 187.548 89.0916 186.408 90.3276C185.274 91.5588 183.697 92.2362 181.969 92.2362ZM124.202 46.5324C122.621 46.5324 121.18 47.1504 120.145 48.273C119.105 49.4016 118.604 50.898 118.733 52.4874L121.438 85.719C121.708 89.0262 124.617 91.7166 127.923 91.7166H181.968C183.55 91.7166 184.99 91.098 186.025 89.9754C187.065 88.8474 187.567 87.351 187.437 85.7616L184.732 52.53C184.462 49.2228 181.553 46.5324 178.247 46.5324H124.202Z" fill="#3C3174"/>
<path d="M154.877 85.2696H153.923L151.294 52.9794H152.248L154.877 85.2696Z" fill="#E0E0E0"/>
<path d="M156.317 71.8518H150.298L149.271 59.2356H155.29L156.317 71.8518Z" fill="#3C3174"/>
<path d="M143.031 85.2696H142.077L139.448 52.9794H140.402L143.031 85.2696Z" fill="#E0E0E0"/>
<path d="M144.7 74.6538H138.68L137.78 63.5952H143.799L144.7 74.6538Z" fill="#3C3174"/>
<path d="M131.185 85.2696H130.231L127.603 52.9794H128.556L131.185 85.2696Z" fill="#E0E0E0"/>
<path d="M132.113 65.5554H126.094L125.476 57.963H131.495L132.113 65.5554Z" fill="#5570AD"/>
<path d="M166.723 85.2696H165.769L163.141 52.9794H164.095L166.723 85.2696Z" fill="#E0E0E0"/>
<path d="M168.746 79.0134H162.727L161.117 59.2356H167.136L168.746 79.0134Z" fill="#5570AD"/>
<path d="M178.569 85.2696H177.615L174.986 52.9794H175.94L178.569 85.2696Z" fill="#E0E0E0"/>
<path d="M180.785 81.3834H174.766L173.477 65.5439H179.496L180.785 81.3834Z" fill="#3C3174"/>
<path d="M124.133 194.863H70.0884C66.6588 194.863 63.624 192.057 63.345 188.627L60.6396 155.396C60.3606 151.966 62.9382 149.16 66.3678 149.16H120.413C123.842 149.16 126.877 151.966 127.156 155.396L129.862 188.627C130.141 192.057 127.563 194.863 124.133 194.863Z" fill="white"/>
<path d="M124.133 195.122H70.0883C66.5177 195.122 63.3761 192.218 63.0857 188.648L60.3803 155.417C60.2393 153.681 60.7889 152.044 61.9283 150.808C63.0629 149.577 64.6397 148.9 66.3677 148.9H120.413C123.983 148.9 127.124 151.804 127.415 155.374L130.121 188.606C130.262 190.341 129.713 191.978 128.573 193.214C127.439 194.445 125.862 195.122 124.133 195.122ZM66.3677 149.419C64.7861 149.419 63.3449 150.038 62.3105 151.16C61.2707 152.288 60.7691 153.785 60.8981 155.374L63.6035 188.606C63.8729 191.912 66.7823 194.603 70.0883 194.603H124.133C125.715 194.603 127.156 193.984 128.191 192.862C129.23 191.734 129.732 190.237 129.602 188.648L126.897 155.417C126.628 152.11 123.719 149.419 120.412 149.419H66.3677Z" fill="#3C3174"/>
<path d="M73.6794 171.219L85.3278 184.677L98.6856 164.072L106.946 174.72L108.962 171.61L122.464 187.794L70.605 187.774L73.6794 171.219Z" fill="#3C3174"/>
<path d="M112.565 172.054L107.152 183.646L89.8842 156.23L81.753 173.641L79.1478 169.504L70.6062 187.793L122.462 187.767L112.565 172.054Z" fill="#E0E0E0"/>
<path d="M223.728 95.436C225.173 98.1486 226.415 100.829 227.585 103.622C228.725 106.415 229.779 109.253 230.603 112.252C230.813 112.996 230.995 113.764 231.169 114.535C231.238 114.796 231.408 115.631 231.407 116.162C231.434 116.751 231.389 117.282 231.316 117.79C230.99 119.785 230.292 121.313 229.531 122.758C227.977 125.618 226.102 127.988 223.922 130.227C223.268 130.898 222.194 130.913 221.522 130.259C220.974 129.725 220.864 128.911 221.198 128.264L221.241 128.183C222.527 125.7 223.801 123.08 224.662 120.593C225.076 119.362 225.404 118.101 225.403 117.173C225.395 116.951 225.389 116.747 225.355 116.606C225.341 116.532 225.328 116.465 225.304 116.429L225.193 116.076C224.993 115.43 224.788 114.783 224.548 114.131C223.639 111.526 222.515 108.91 221.348 106.315C220.186 103.728 218.935 101.097 217.699 98.5962L217.673 98.5452C216.841 96.8604 217.531 94.8192 219.216 93.9858C220.868 93.1686 222.865 93.822 223.728 95.436Z" fill="#3C3174"/>
<path d="M221.851 127.928L218.987 128.83L222.358 132.776C222.358 132.776 223.658 131.631 224.127 129.974C224.285 129.415 224.054 128.816 223.583 128.476L223.105 128.131C222.743 127.868 222.277 127.793 221.851 127.928Z" fill="#7F3E3B"/>
<path d="M215.042 131.262L218.654 134.128L222.358 132.775L218.987 128.83L215.042 131.262Z" fill="#7F3E3B"/>
<path d="M202.71 75.3677C202.638 75.7229 202.391 75.9719 202.159 75.9251C201.927 75.8777 201.797 75.5519 201.87 75.1967C201.942 74.8415 202.189 74.5925 202.421 74.6393C202.653 74.6873 202.783 75.0131 202.71 75.3677Z" fill="#5570AD"/>
<path d="M202.424 75.9791C202.424 75.9791 201.201 77.8631 200.111 78.6707C200.62 79.3847 201.742 79.3337 201.742 79.3337L202.424 75.9791Z" fill="#630F0F"/>
<path d="M204.41 73.6608C204.462 73.6608 204.514 73.6422 204.555 73.6044C204.641 73.5246 204.647 73.3902 204.566 73.3038C203.768 72.4392 202.798 72.5928 202.757 72.6C202.641 72.6198 202.563 72.7296 202.583 72.8454C202.603 72.9612 202.714 73.038 202.828 73.0194C202.859 73.0146 203.617 72.903 204.254 73.5924C204.296 73.638 204.353 73.6608 204.41 73.6608Z" fill="#5570AD"/>
<path d="M212.568 81.8286C211.924 85.1142 211.535 89.6658 213.833 91.8582C213.833 91.8582 212.935 95.1906 206.83 95.1906C200.117 95.1906 203.601 92.2656 203.601 92.2656C206.391 91.3998 206.367 88.221 205.729 85.6686L212.568 81.8286Z" fill="#7F3E3B"/>
<path d="M202.424 91.7526C202.424 91.7526 203.403 89.433 204.403 89.0334C205.403 88.6332 211.77 87.5868 213.236 88.5102C214.703 89.4336 215.693 92.4006 215.693 92.4006L202.424 91.7526Z" fill="#3C3174"/>
<path d="M209.153 245.387C208.576 245.387 208.02 245.308 207.833 245.049C207.768 244.958 207.717 244.804 207.842 244.584C207.913 244.46 208.026 244.377 208.18 244.335C208.927 244.132 210.496 245.026 210.563 245.065C210.601 245.087 210.622 245.131 210.615 245.174C210.608 245.218 210.574 245.252 210.531 245.261C210.244 245.318 209.69 245.387 209.153 245.387ZM208.441 244.516C208.366 244.516 208.297 244.524 208.235 244.541C208.136 244.567 208.069 244.616 208.027 244.69C207.952 244.822 207.979 244.887 208.006 244.925C208.215 245.215 209.35 245.222 210.185 245.104C209.769 244.89 208.966 244.516 208.441 244.516Z" fill="#3C3174"/>
<path d="M210.509 245.263C210.494 245.263 210.48 245.26 210.466 245.253C209.923 245.01 208.85 244.039 208.932 243.531C208.951 243.412 209.036 243.264 209.328 243.234C209.546 243.212 209.744 243.273 209.918 243.416C210.489 243.885 210.61 245.095 210.615 245.147C210.619 245.184 210.602 245.221 210.571 245.243C210.553 245.256 210.532 245.263 210.509 245.263ZM209.414 243.443C209.393 243.443 209.371 243.444 209.35 243.446C209.159 243.465 209.147 243.54 209.143 243.565C209.093 243.87 209.823 244.633 210.376 244.965C210.319 244.612 210.158 243.888 209.783 243.581C209.671 243.488 209.549 243.443 209.414 243.443Z" fill="#3C3174"/>
<path d="M215.448 245.157H210.957L210.509 234.757H215L215.448 245.157Z" fill="#7F3E3B"/>
<path d="M210.986 244.637H215.891C216.074 244.637 216.233 244.764 216.273 244.943L217.16 248.935C217.252 249.349 216.938 249.741 216.514 249.734C214.745 249.704 212.189 249.6 209.965 249.6C207.365 249.6 207.05 249.742 204.002 249.742C202.158 249.742 201.646 247.877 202.418 247.709C205.931 246.94 206.869 246.858 209.905 244.986C210.235 244.783 210.599 244.637 210.986 244.637Z" fill="#5570AD"/>
<path d="M221.875 91.8738C226.084 92.8386 228.861 104.198 228.861 104.198L221.833 109.477C221.833 109.477 217.999 107.102 216.619 101.727C215.172 96.0948 217.571 90.8874 221.875 91.8738Z" fill="#5570AD"/>
<path opacity="0.2" d="M218.267 99.7758C220.553 102.038 222.031 105.608 222.208 109.19L221.836 109.478C221.836 109.478 217.999 107.099 216.617 101.726C216.531 101.39 216.458 101.053 216.397 100.723L218.267 99.7758Z" fill="black"/>
<path d="M237.007 108.777L202.911 122.402L213.045 147.759L247.14 134.134L237.007 108.777Z" fill="#3C3174"/>
<path opacity="0.5" d="M236.506 108.976L202.912 122.402L213.045 147.759L246.64 134.333L236.506 108.976Z" fill="white"/>
<g opacity="0.5">
<path d="M209.067 122.545L205.886 123.816L206.787 126.07L209.968 124.799L209.067 122.545Z" fill="#3C3174"/>
<path d="M214.319 120.446L211.138 121.717L212.039 123.971L215.22 122.7L214.319 120.446Z" fill="#3C3174"/>
<path d="M219.571 118.347L216.39 119.618L217.291 121.872L220.471 120.601L219.571 118.347Z" fill="#3C3174"/>
<path d="M224.822 116.248L221.642 117.519L222.542 119.774L225.723 118.503L224.822 116.248Z" fill="#3C3174"/>
<path d="M230.074 114.149L226.894 115.421L227.794 117.675L230.975 116.404L230.074 114.149Z" fill="#3C3174"/>
<path d="M235.326 112.054L232.145 113.325L233.046 115.58L236.227 114.309L235.326 112.054Z" fill="#3C3174"/>
<path d="M210.554 126.266L207.374 127.537L208.275 129.792L211.455 128.52L210.554 126.266Z" fill="#3C3174"/>
<path d="M215.806 124.168L212.625 125.44L213.526 127.694L216.707 126.423L215.806 124.168Z" fill="#3C3174"/>
<path d="M221.058 122.07L217.877 123.341L218.778 125.596L221.959 124.324L221.058 122.07Z" fill="#3C3174"/>
<path d="M226.31 119.971L223.129 121.242L224.03 123.496L227.211 122.225L226.31 119.971Z" fill="#3C3174"/>
<path d="M231.562 117.872L228.381 119.143L229.282 121.398L232.463 120.127L231.562 117.872Z" fill="#3C3174"/>
<path d="M236.814 115.773L233.633 117.044L234.534 119.299L237.714 118.027L236.814 115.773Z" fill="#3C3174"/>
<path d="M212.042 129.99L208.861 131.261L209.762 133.516L212.943 132.244L212.042 129.99Z" fill="#3C3174"/>
<path d="M217.294 127.89L214.114 129.161L215.014 131.415L218.195 130.144L217.294 127.89Z" fill="#3C3174"/>
<path d="M222.546 125.792L219.365 127.064L220.266 129.318L223.447 128.047L222.546 125.792Z" fill="#3C3174"/>
<path d="M227.798 123.694L224.617 124.965L225.518 127.219L228.699 125.948L227.798 123.694Z" fill="#3C3174"/>
<path d="M233.049 121.599L229.868 122.87L230.769 125.124L233.95 123.853L233.049 121.599Z" fill="#3C3174"/>
<path d="M238.301 119.5L235.12 120.771L236.021 123.026L239.202 121.755L238.301 119.5Z" fill="#3C3174"/>
<path d="M213.53 133.713L210.349 134.984L211.25 137.239L214.431 135.967L213.53 133.713Z" fill="#3C3174"/>
<path d="M218.781 131.614L215.601 132.885L216.502 135.14L219.683 133.869L218.781 131.614Z" fill="#3C3174"/>
<path d="M224.033 129.513L220.853 130.785L221.754 133.039L224.934 131.768L224.033 129.513Z" fill="#3C3174"/>
<path d="M229.285 127.416L226.104 128.687L227.005 130.942L230.186 129.671L229.285 127.416Z" fill="#3C3174"/>
<path d="M234.537 125.317L231.356 126.589L232.257 128.843L235.438 127.572L234.537 125.317Z" fill="#3C3174"/>
<path d="M239.789 123.219L236.608 124.49L237.509 126.744L240.69 125.473L239.789 123.219Z" fill="#3C3174"/>
<path d="M215.018 137.434L211.837 138.705L212.738 140.959L215.919 139.688L215.018 137.434Z" fill="#3C3174"/>
<path d="M220.27 135.337L217.089 136.608L217.99 138.862L221.17 137.591L220.27 135.337Z" fill="#3C3174"/>
<path d="M225.521 133.238L222.341 134.509L223.241 136.763L226.422 135.492L225.521 133.238Z" fill="#3C3174"/>
<path d="M230.773 131.141L227.592 132.412L228.493 134.667L231.674 133.395L230.773 131.141Z" fill="#3C3174"/>
<path d="M236.024 129.044L232.844 130.315L233.745 132.57L236.925 131.299L236.024 129.044Z" fill="#3C3174"/>
<path d="M241.277 126.941L238.096 128.212L238.997 130.467L242.178 129.196L241.277 126.941Z" fill="#3C3174"/>
<path d="M216.505 141.158L213.324 142.429L214.225 144.684L217.406 143.413L216.505 141.158Z" fill="#3C3174"/>
<path d="M221.757 139.059L218.576 140.331L219.477 142.585L222.658 141.314L221.757 139.059Z" fill="#3C3174"/>
<path d="M227.009 136.961L223.828 138.232L224.729 140.487L227.91 139.215L227.009 136.961Z" fill="#3C3174"/>
<path d="M232.261 134.862L229.08 136.133L229.981 138.387L233.161 137.116L232.261 134.862Z" fill="#3C3174"/>
<path d="M237.513 132.761L234.332 134.032L235.233 136.287L238.414 135.015L237.513 132.761Z" fill="#3C3174"/>
<path d="M242.765 130.664L239.584 131.935L240.485 134.189L243.666 132.918L242.765 130.664Z" fill="#3C3174"/>
</g>
<path d="M234.186 116.821C233.991 116.333 234.229 115.779 234.716 115.584C235.204 115.389 235.758 115.627 235.953 116.114C236.148 116.602 235.91 117.156 235.423 117.351C234.935 117.546 234.381 117.309 234.186 116.821Z" fill="white"/>
<path d="M233.397 130.088C233.202 129.6 233.44 129.046 233.927 128.851C234.415 128.656 234.969 128.894 235.164 129.382C235.359 129.869 235.121 130.423 234.634 130.618C234.146 130.813 233.592 130.576 233.397 130.088Z" fill="white"/>
<path d="M221.406 130.562C221.211 130.075 221.449 129.521 221.936 129.326C222.424 129.131 222.978 129.368 223.173 129.856C223.368 130.344 223.13 130.898 222.643 131.093C222.155 131.288 221.601 131.051 221.406 130.562Z" fill="white"/>
<path d="M213.878 142.206C213.683 141.718 213.92 141.164 214.408 140.969C214.896 140.774 215.45 141.012 215.645 141.5C215.84 141.987 215.602 142.541 215.114 142.736C214.627 142.931 214.073 142.694 213.878 142.206Z" fill="white"/>
<path d="M214.761 142.205C214.696 142.205 214.629 142.187 214.57 142.148C214.406 142.043 214.359 141.824 214.465 141.661L221.993 130.018C222.056 129.922 222.161 129.861 222.275 129.857L233.948 129.394L234.717 116.446C234.729 116.252 234.901 116.107 235.09 116.115C235.285 116.127 235.433 116.294 235.421 116.488L234.633 129.755C234.622 129.936 234.476 130.079 234.295 130.086L222.486 130.554L215.057 142.043C214.99 142.148 214.877 142.205 214.761 142.205Z" fill="white"/>
<path d="M195.277 96.3769C194.359 101.228 193.784 111.192 196.45 130.922H220.47C220.036 127.501 218.318 109.248 221.875 91.8739C221.875 91.8739 217.758 91.0477 213.834 90.8587C210.765 90.7105 206.321 90.6127 203.623 90.8593C202.497 90.9619 201.391 91.1245 200.407 91.2991C197.809 91.7581 195.767 93.7849 195.277 96.3769Z" fill="#5570AD"/>
<path opacity="0.2" d="M199.054 103.848L194.542 104.208C194.38 110.046 194.782 118.566 196.45 130.92H196.666C199.372 122.022 202.96 109.302 199.054 103.848Z" fill="black"/>
<path opacity="0.2" d="M210.511 234.76L210.74 240.12H215.233L215.003 234.76H210.511Z" fill="black"/>
<path d="M214.703 77.0219C213.549 81.3269 213.092 83.9057 210.436 85.6955C206.44 88.3883 201.464 85.2977 201.308 80.7347C201.168 76.6277 203.078 70.2773 207.698 69.4097C212.251 68.5547 215.857 72.7169 214.703 77.0219Z" fill="#7F3E3B"/>
<path d="M204.623 77.0502L202.29 77.6568L204.461 72.0252C204.226 71.5956 203.608 69.6384 204.262 67.6812C204.434 67.1652 204.908 66.816 205.451 66.8052C210.289 66.711 215.344 69.4266 217.892 71.4792C218.383 71.8746 218.503 72.5712 218.175 73.1088C217.617 74.022 216.895 74.721 215.984 75.6474C215.936 77.2242 213.362 84.3492 211.937 85.149C210.512 85.9488 207.787 85.6242 207.062 84.324C206.336 83.025 203.886 81.3 204.623 77.0502Z" fill="#5570AD"/>
<path d="M206.783 77.1396C206.521 78.2772 205.805 79.2684 205.044 79.8678C203.899 80.769 203.003 79.9374 203.051 78.6126C203.093 77.4204 203.74 75.5154 205.019 75.1278C206.279 74.7456 207.083 75.8388 206.783 77.1396Z" fill="#7F3E3B"/>
<path d="M247.849 243.837C247.846 243.26 247.921 242.704 248.179 242.515C248.269 242.449 248.423 242.397 248.644 242.521C248.768 242.591 248.852 242.704 248.895 242.857C249.103 243.603 248.219 245.178 248.181 245.245C248.159 245.283 248.116 245.304 248.072 245.297C248.028 245.291 247.993 245.257 247.984 245.214C247.925 244.928 247.853 244.374 247.849 243.837ZM248.716 243.119C248.715 243.044 248.707 242.975 248.69 242.914C248.662 242.816 248.614 242.749 248.54 242.707C248.407 242.632 248.342 242.66 248.305 242.687C248.015 242.898 248.016 244.033 248.14 244.868C248.351 244.45 248.719 243.644 248.716 243.119Z" fill="#3C3174"/>
<path d="M247.982 245.193C247.982 245.178 247.985 245.164 247.991 245.149C248.231 244.606 249.195 243.526 249.703 243.605C249.823 243.623 249.971 243.707 250.003 243.999C250.027 244.217 249.967 244.415 249.824 244.59C249.359 245.164 248.15 245.293 248.099 245.299C248.061 245.302 248.024 245.286 248.002 245.255C247.989 245.236 247.982 245.215 247.982 245.193ZM249.796 244.085C249.796 244.064 249.794 244.043 249.792 244.022C249.772 243.83 249.696 243.819 249.671 243.815C249.366 243.767 248.607 244.502 248.278 245.057C248.631 244.997 249.354 244.833 249.659 244.456C249.752 244.342 249.796 244.22 249.796 244.085Z" fill="#3C3174"/>
<path d="M248.05 245.222L243.667 245.533L241.205 235.049L245.588 234.739L248.05 245.222Z" fill="#7F3E3B"/>
<path d="M248.035 244.216L243.15 243.783C242.967 243.767 242.798 243.88 242.742 244.055L241.507 247.953C241.379 248.357 241.657 248.776 242.08 248.806C243.844 248.932 246.4 249.053 248.615 249.25C251.204 249.479 249.527 249.473 252.565 249.742C254.401 249.904 255.075 248.093 254.321 247.856C250.889 246.781 250.268 246.038 249.082 244.659C248.829 244.366 248.421 244.25 248.035 244.216Z" fill="#5570AD"/>
<path opacity="0.2" d="M241.207 235.052L242.475 240.456L246.859 240.146L245.591 234.742L241.207 235.052Z" fill="black"/>
<path d="M204.97 130.922C204.97 130.922 215.3 165.418 219.22 178.222C223.512 192.245 239.843 238.765 239.843 238.765L247.762 237.024C247.762 237.024 236.575 197.055 231.937 177.5C228.373 162.479 220.47 130.922 220.47 130.922H204.97Z" fill="#3C3174"/>
<path d="M238.453 236.316C238.417 236.32 239.231 239.409 239.231 239.409L248.756 238.386L248.713 235.556L238.453 236.316Z" fill="#5570AD"/>
<path opacity="0.3" d="M210.692 146.909C216.408 147.663 218.684 167.584 219.541 179.274C219.432 178.904 219.318 178.552 219.218 178.22C217.079 171.229 213.029 157.757 209.79 146.973C210.058 146.884 210.364 146.865 210.692 146.909Z" fill="black"/>
<path d="M196.45 130.922C196.45 130.922 199.915 164.518 201.407 178.195C202.959 192.421 208.787 239.082 208.787 239.082H216.395C216.395 239.082 215.473 193.272 215.166 179.282C214.832 164.03 212.239 130.922 212.239 130.922H196.45Z" fill="#3C3174"/>
<path d="M207.603 236.052C207.568 236.052 208.032 239.21 208.032 239.21H217.286L217.537 236.392L207.603 236.052Z" fill="#5570AD"/>
<path d="M163.96 162.53C167.924 168.82 176.239 170.703 182.528 166.738C188.818 162.773 190.702 154.46 186.737 148.171C182.771 141.881 174.458 139.996 168.169 143.96C161.879 147.925 159.995 156.241 163.96 162.53ZM184.935 149.306C188.272 154.6 186.686 161.598 181.393 164.936C176.098 168.274 169.099 166.688 165.762 161.394C162.424 156.098 164.01 149.101 169.305 145.762C174.599 142.425 181.597 144.011 184.935 149.306Z" fill="#5570AD"/>
<path opacity="0.2" d="M185.476 157.646C184.208 163.239 178.646 166.745 173.053 165.478C167.459 164.21 163.952 158.647 165.22 153.054C166.487 147.46 172.05 143.953 177.644 145.22C183.238 146.489 186.745 152.051 185.476 157.646Z" fill="#3C3174"/>
<path d="M187.107 146.537L188.369 148.54C188.561 148.844 188.47 149.246 188.166 149.437C187.862 149.629 187.46 149.538 187.268 149.234L186.007 147.232C185.815 146.927 185.906 146.525 186.21 146.334C186.513 146.142 186.915 146.233 187.107 146.537Z" fill="#5570AD"/>
<path d="M195.272 140.847C193.813 141.843 192.365 142.858 190.935 143.9C189.506 144.943 188.089 146.006 186.713 147.135C186.405 147.388 186.294 147.827 186.47 148.206C186.68 148.654 187.213 148.846 187.66 148.637C189.272 147.883 190.841 147.062 192.399 146.223C193.956 145.382 195.495 144.513 197.023 143.626C198.323 142.87 199.613 142.097 200.896 141.314C201.265 141.089 201.378 140.603 201.147 140.237L200.107 138.588C199.876 138.222 199.39 138.115 199.027 138.35C197.768 139.169 196.515 140 195.272 140.847Z" fill="#5570AD"/>
<path d="M201.962 98.0573C201.228 101.659 200.44 105.248 199.621 108.829L197.133 119.542C196.328 123.034 195.638 126.577 195.007 130.168L193.119 140.971L193.115 140.996C192.953 141.917 192.076 142.534 191.155 142.373C190.351 142.232 189.78 141.547 189.754 140.763C189.624 137.013 189.682 133.304 189.892 129.572C190.115 125.851 190.459 122.096 191.072 118.363C191.657 114.691 192.314 111.062 193.018 107.436C193.718 103.812 194.48 100.203 195.311 96.6095C195.735 94.7777 197.563 93.6365 199.394 94.0595C201.194 94.4759 202.327 96.2567 201.962 98.0573Z" fill="#3C3174"/>
<path d="M192.604 139.996C192.3 139.675 191.843 139.541 191.413 139.643L190.438 139.876C189.938 139.996 189.563 140.411 189.497 140.92L189.214 143.086C189.133 143.707 189.266 144.337 189.589 144.872L190.928 147.089C191.281 147.556 191.872 147.776 192.444 147.655L193.841 147.358C194.716 147.172 195.238 146.27 194.963 145.418L194.597 144.289C194.597 144.289 194.575 142.081 192.604 139.996Z" fill="#7F3E3B"/>
<path d="M206.636 95.9747C208.82 101.767 201.268 110.027 201.268 110.027L191.711 106.867C191.711 106.867 192.443 98.9633 195.76 94.5077C199.857 89.0039 204.974 91.5659 206.636 95.9747Z" fill="#5570AD"/>
</svg>
