<svg width="313" height="313" viewBox="0 0 313 313" fill="none" xmlns="http://www.w3.org/2000/svg">
<g clip-path="url(#clip0_2_909)">
<path d="M313 239.381H0V239.538H313V239.381Z" fill="#EBEBEB"/>
<path d="M281.638 249.457H260.904V249.614H281.638V249.457Z" fill="#EBEBEB"/>
<path d="M207.344 251.156H201.902V251.313H207.344V251.156Z" fill="#EBEBEB"/>
<path d="M260.277 243.644H248.263V243.801H260.277V243.644Z" fill="#EBEBEB"/>
<path d="M59.8781 244.696H32.8393V244.852H59.8781V244.696Z" fill="#EBEBEB"/>
<path d="M69.4165 244.696H65.4521V244.852H69.4165V244.696Z" fill="#EBEBEB"/>
<path d="M140.942 247.34H82.3008V247.496H140.942V247.34Z" fill="#EBEBEB"/>
<path d="M148.371 211.463H27.4908C25.5208 211.463 23.9176 209.86 23.9176 207.89V37.9731C23.9176 36.0031 25.5208 34.3999 27.4908 34.3999H148.371C150.34 34.3999 151.943 36.0031 151.943 37.9731V207.89C151.943 209.86 150.34 211.463 148.371 211.463ZM27.4908 34.557C25.6066 34.557 24.0741 36.0895 24.0741 37.9737V207.89C24.0741 209.774 25.6066 211.307 27.4908 211.307H148.371C150.254 211.307 151.787 209.774 151.787 207.89V37.9731C151.787 36.0895 150.254 34.5564 148.371 34.5564L27.4908 34.557Z" fill="#EBEBEB"/>
<path d="M283.772 211.463H162.893C160.923 211.463 159.32 209.86 159.32 207.89V37.9731C159.32 36.0031 160.923 34.3999 162.893 34.3999H283.772C285.743 34.3999 287.345 36.0031 287.345 37.9731V207.89C287.346 209.86 285.743 211.463 283.772 211.463ZM162.893 34.557C161.009 34.557 159.477 36.0895 159.477 37.9737V207.89C159.477 209.774 161.009 211.307 162.893 211.307H283.772C285.656 211.307 287.189 209.774 287.189 207.89V37.9731C287.189 36.0895 285.656 34.5564 283.772 34.5564L162.893 34.557Z" fill="#EBEBEB"/>
<path d="M168.693 239.381H275.446L283.021 52.0725H176.269L168.693 239.381Z" fill="#E6E6E6"/>
<path d="M166.085 239.381H272.838L280.413 52.0725H173.661L166.085 239.381Z" fill="#F0F0F0"/>
<path d="M267.724 234.056L274.868 57.3972H178.774L171.63 234.056H267.724Z" fill="#FAFAFA"/>
<path d="M64.7197 88.4293L70.3055 102.197C70.1446 142.017 71.9443 144.312 71.9606 151.162H57.8593C57.3529 117.831 62.2933 125.325 64.7197 88.4293Z" fill="#EBEBEB"/>
<path d="M72.591 129.094C61.2409 97.8446 35.1111 107.523 36.2811 118.912C37.4511 130.301 79.1189 147.066 72.591 129.094Z" fill="#EBEBEB"/>
<path d="M68.301 147.114C62.1086 126.975 45.6423 130.263 45.6416 139.518C45.641 148.773 71.8623 158.697 68.301 147.114Z" fill="#EBEBEB"/>
<path d="M67.8584 110.763C58.1379 83.8446 33.9254 87.548 35.8754 98.9055C37.8254 110.263 73.4492 126.245 67.8584 110.763Z" fill="#EBEBEB"/>
<path d="M67.926 98.6889C68.8274 80.3477 50.664 72.7994 51.9229 83.7601C53.1812 94.7207 67.4077 109.238 67.926 98.6889Z" fill="#EBEBEB"/>
<path d="M66.5695 117.467C70.405 94.8672 93.6809 86.2703 91.0805 99.0627C88.4801 111.855 64.3634 130.465 66.5695 117.467Z" fill="#EBEBEB"/>
<path d="M64.6101 104.691C60.0897 80.9925 81.0006 70.4613 81.6022 81.8871C82.2038 93.3122 67.2092 118.321 64.6101 104.691Z" fill="#EBEBEB"/>
<path d="M62.7953 131.461C72.0338 108.622 91.8179 114.289 89.8216 124.683C87.8246 135.076 57.4818 144.595 62.7953 131.461Z" fill="#EBEBEB"/>
<path d="M67.3545 147.409C67.1485 132.674 80.5224 128.866 80.6814 137.401C80.8398 145.937 67.4734 155.883 67.3545 147.409Z" fill="#EBEBEB"/>
<path d="M63.2704 165.242C55.9187 165.242 49.7157 160.123 48.2064 153.204C47.807 151.374 47.3525 149.556 46.6364 147.824L46.5212 147.545H80.0203L79.9051 147.824C79.1884 149.556 78.7339 151.374 78.3351 153.204C76.8252 160.123 70.6222 165.242 63.2704 165.242Z" fill="#E0E0E0"/>
<path d="M30.9276 239.381H45.7969L45.7969 165.242H30.9276L30.9276 239.381Z" fill="#E6E6E6"/>
<path d="M35.3852 239.381H30.9275V230.447H40.059L35.3852 239.381Z" fill="#F0F0F0"/>
<path d="M132.832 239.381H147.702V165.242H132.832V239.381Z" fill="#E6E6E6"/>
<path d="M30.9274 236.409H136.723V165.242H30.9274L30.9274 236.409Z" fill="#F0F0F0"/>
<path d="M132.265 239.381H136.723V230.447H127.591L132.265 239.381Z" fill="#F0F0F0"/>
<path d="M34.386 198.728H133.265V170.251H34.386V198.728Z" fill="#E6E6E6"/>
<path d="M61.0938 179.101H103.562C107.912 179.101 112.07 175.587 115.061 169.385H49.5955C52.5865 175.587 56.7444 179.101 61.0938 179.101Z" fill="#F0F0F0"/>
<path d="M34.386 231.806H133.265V203.329H34.386V231.806Z" fill="#E6E6E6"/>
<path d="M61.0938 212.179H103.562C107.912 212.179 112.07 208.666 115.061 202.464H49.5955C52.5865 208.666 56.7444 212.179 61.0938 212.179Z" fill="#F0F0F0"/>
<path d="M156.5 267.653C223.533 267.653 277.875 264.48 277.875 260.565C277.875 256.65 223.533 253.477 156.5 253.477C89.4667 253.477 35.1255 256.65 35.1255 260.565C35.1255 264.48 89.4667 267.653 156.5 267.653Z" fill="#F5F5F5"/>
<path d="M253.448 197.568H91.4655C87.8966 197.568 85.2217 194.648 85.5216 191.079L95.2496 75.2402C95.5495 71.6714 98.7146 68.7511 102.283 68.7511H264.266C267.835 68.7511 270.51 71.6714 270.21 75.2402L260.482 191.079C260.182 194.648 257.017 197.568 253.448 197.568Z" fill="#5570AD"/>
<path opacity="0.7" d="M253.448 197.568H91.4655C87.8966 197.568 85.2217 194.648 85.5216 191.079L95.2496 75.2402C95.5495 71.6714 98.7146 68.7511 102.283 68.7511H264.266C267.835 68.7511 270.51 71.6714 270.21 75.2402L260.482 191.079C260.182 194.648 257.017 197.568 253.448 197.568Z" fill="white"/>
<path d="M91.6764 195.064C89.4791 195.064 87.8415 193.276 88.0262 191.079L97.7542 75.2402C97.9389 73.043 99.8764 71.2551 102.074 71.2551H264.056C266.253 71.2551 267.891 73.0424 267.706 75.2402L257.978 191.079C257.794 193.276 255.856 195.064 253.659 195.064H91.6764Z" fill="white"/>
<path d="M106.802 79.3556H110.17L110.095 80.2408H108.965L108.739 82.9407H107.631L107.857 80.2408H106.727L106.802 79.3556Z" fill="#5570AD"/>
<path d="M112.283 82.3491H111.025L110.801 82.9407H109.67L111.318 79.3556H112.526L113.572 82.9407H112.412L112.283 82.3491ZM112.118 81.5735L111.831 80.2846L111.332 81.5735H112.118Z" fill="#5570AD"/>
<path d="M113.832 81.7545L114.891 81.6887C114.9 81.8596 114.935 81.9905 114.997 82.08C115.099 82.2252 115.257 82.2978 115.468 82.2978C115.626 82.2978 115.751 82.2609 115.843 82.1864C115.935 82.1119 115.985 82.0261 115.993 81.9285C116.002 81.8358 115.968 81.7526 115.892 81.6793C115.817 81.6061 115.633 81.5366 115.342 81.4715C114.866 81.3626 114.532 81.2174 114.34 81.0364C114.146 80.8555 114.061 80.6245 114.085 80.3447C114.1 80.1607 114.168 79.9866 114.289 79.8226C114.409 79.6586 114.581 79.5303 114.803 79.4364C115.025 79.3425 115.323 79.2955 115.696 79.2955C116.154 79.2955 116.496 79.3807 116.723 79.5509C116.949 79.7212 117.069 79.9923 117.083 80.3641L116.034 80.4255C116.02 80.264 115.971 80.1469 115.889 80.073C115.806 79.9998 115.687 79.9628 115.53 79.9628C115.401 79.9628 115.302 79.9898 115.232 80.0449C115.163 80.0993 115.125 80.1657 115.118 80.2439C115.113 80.3009 115.135 80.3522 115.185 80.3979C115.233 80.4455 115.354 80.4893 115.546 80.53C116.022 80.6345 116.359 80.7403 116.56 80.8468C116.76 80.9532 116.902 81.0859 116.984 81.2443C117.066 81.402 117.099 81.5792 117.082 81.7751C117.063 82.0049 116.981 82.2171 116.838 82.4111C116.695 82.6052 116.504 82.7523 116.268 82.8525C116.031 82.9526 115.739 83.0027 115.392 83.0027C114.782 83.0027 114.37 82.885 114.155 82.6503C113.94 82.4149 113.832 82.1163 113.832 81.7545Z" fill="#5570AD"/>
<path d="M117.848 79.3556H118.956L118.842 80.7103L120.116 79.3556H121.589L120.168 80.709L121.347 82.9407H119.983L119.351 81.4665L118.728 82.0662L118.655 82.9413H117.547L117.848 79.3556Z" fill="#5570AD"/>
<path d="M123.68 79.3556H125.521C125.922 79.3556 126.215 79.4507 126.398 79.6417C126.582 79.8326 126.659 80.1037 126.629 80.4561C126.598 80.8179 126.466 81.1009 126.232 81.3043C125.997 81.5084 125.656 81.6098 125.209 81.6098H124.603L124.491 82.9401H123.379L123.68 79.3556ZM124.664 80.8843H124.936C125.149 80.8843 125.302 80.8473 125.395 80.7729C125.488 80.6984 125.539 80.6038 125.549 80.488C125.558 80.3753 125.529 80.2802 125.46 80.2019C125.392 80.1237 125.254 80.0843 125.047 80.0843H124.732L124.664 80.8843Z" fill="#5570AD"/>
<path d="M128.828 82.3491H127.571L127.346 82.9407H126.215L127.863 79.3556H129.071L130.117 82.9407H128.957L128.828 82.3491ZM128.664 81.5735L128.376 80.2846L127.877 81.5735H128.664Z" fill="#5570AD"/>
<path d="M130.778 79.3556H131.812L132.996 81.3388L133.162 79.3556H134.206L133.905 82.9407H132.861L131.684 80.9719L131.519 82.9407H130.477L130.778 79.3556Z" fill="#5570AD"/>
<path d="M134.941 79.3556H137.909L137.845 80.1212H135.986L135.938 80.6909H137.662L137.601 81.422H135.877L135.818 82.1288H137.73L137.662 82.9407H134.639L134.941 79.3556Z" fill="#5570AD"/>
<path d="M138.559 79.3556H139.667L139.44 82.0574H141.169L141.095 82.9401H138.259L138.559 79.3556Z" fill="#5570AD"/>
<path opacity="0.1" d="M158.353 84.5402H148.963C147.901 84.5402 147.106 83.6719 147.195 82.6102L147.476 79.2718C147.564 78.2101 148.506 77.3418 149.568 77.3418H158.958C160.019 77.3418 160.815 78.2101 160.725 79.2718L160.445 82.6102C160.356 83.6719 159.415 84.5402 158.353 84.5402Z" fill="#5570AD"/>
<path opacity="0.1" d="M256.897 83.1119C258.198 81.8643 258.323 79.8831 257.176 78.6867C256.029 77.4904 254.044 77.532 252.743 78.7796C251.442 80.0272 251.317 82.0084 252.464 83.2047C253.611 84.4011 255.596 84.3595 256.897 83.1119Z" fill="#5570AD"/>
<path opacity="0.1" d="M244.377 83.1118C245.678 81.8642 245.803 79.883 244.656 78.6866C243.508 77.4903 241.524 77.5318 240.223 78.7795C238.921 80.0271 238.797 82.0083 239.944 83.2046C241.091 84.4009 243.075 84.3594 244.377 83.1118Z" fill="#5570AD"/>
<path opacity="0.1" d="M231.856 83.1115C233.158 81.8639 233.282 79.8827 232.135 78.6864C230.988 77.49 229.004 77.5316 227.702 78.7792C226.401 80.0268 226.276 82.008 227.424 83.2044C228.571 84.4007 230.555 84.3591 231.856 83.1115Z" fill="#5570AD"/>
<path opacity="0.1" d="M149.282 93.9996H109.754C107.391 93.9996 105.308 95.7862 105.124 97.9697L96.9705 195.064H145.092L153.245 97.9697C153.429 95.7862 151.645 93.9996 149.282 93.9996Z" fill="#5570AD"/>
<path d="M148.054 96.3995H110.579C108.855 96.3995 107.325 97.8105 107.18 99.5352L105.293 122.01C105.148 123.734 106.44 125.145 108.165 125.145H145.64C147.365 125.145 148.895 123.734 149.039 122.01L150.927 99.5352C151.071 97.8105 149.779 96.3995 148.054 96.3995Z" fill="white"/>
<path d="M145.355 128.537H107.88C106.156 128.537 104.626 129.948 104.481 131.673L102.594 154.148C102.449 155.872 103.742 157.283 105.467 157.283H142.941C144.666 157.283 146.196 155.872 146.341 154.148L148.228 131.673C148.373 129.948 147.08 128.537 145.355 128.537Z" fill="white"/>
<path d="M142.656 160.675H105.181C103.457 160.675 101.927 162.086 101.782 163.81L99.8946 186.285C99.75 188.01 101.042 189.421 102.767 189.421H140.242C141.967 189.421 143.497 188.01 143.641 186.285L145.529 163.81C145.673 162.086 144.381 160.675 142.656 160.675Z" fill="white"/>
<path opacity="0.5" d="M117.573 109.024H110.948C110.159 109.024 109.568 108.378 109.634 107.589L110.19 100.964C110.257 100.175 110.957 99.5291 111.745 99.5291H118.37C119.159 99.5291 119.751 100.174 119.684 100.964L119.128 107.589C119.062 108.378 118.362 109.024 117.573 109.024Z" fill="#5570AD"/>
<path opacity="0.5" d="M145.887 114.188H109.757C109.384 114.188 109.105 113.883 109.136 113.51C109.168 113.137 109.498 112.832 109.871 112.832H146.001C146.374 112.832 146.654 113.138 146.622 113.51C146.592 113.883 146.261 114.188 145.887 114.188Z" fill="#5570AD"/>
<path opacity="0.2" d="M141.107 103.564H124.483C123.89 103.564 123.446 103.078 123.495 102.486C123.546 101.893 124.071 101.408 124.664 101.408H141.288C141.881 101.408 142.326 101.893 142.276 102.486C142.227 103.078 141.701 103.564 141.107 103.564Z" fill="#3C3174"/>
<path opacity="0.2" d="M134.234 107.146H124.183C123.591 107.146 123.146 106.66 123.196 106.068C123.245 105.475 123.771 104.99 124.364 104.99H134.415C135.008 104.99 135.453 105.475 135.403 106.068C135.352 106.66 134.827 107.146 134.234 107.146Z" fill="#3C3174"/>
<path opacity="0.5" d="M114.874 141.162H108.249C107.46 141.162 106.869 140.516 106.935 139.727L107.492 133.102C107.558 132.313 108.258 131.667 109.047 131.667H115.672C116.46 131.667 117.052 132.313 116.986 133.102L116.429 139.727C116.363 140.516 115.663 141.162 114.874 141.162Z" fill="#5570AD"/>
<path opacity="0.5" d="M143.189 146.326H107.058C106.685 146.326 106.406 146.021 106.437 145.648C106.469 145.275 106.799 144.97 107.172 144.97H143.303C143.676 144.97 143.955 145.276 143.924 145.648C143.893 146.021 143.562 146.326 143.189 146.326Z" fill="#5570AD"/>
<path opacity="0.2" d="M138.409 135.701H121.785C121.192 135.701 120.748 135.216 120.797 134.623C120.847 134.03 121.373 133.545 121.966 133.545H138.59C139.183 133.545 139.627 134.03 139.578 134.623C139.527 135.216 139.001 135.701 138.409 135.701Z" fill="#3C3174"/>
<path opacity="0.2" d="M131.535 139.284H121.484C120.891 139.284 120.447 138.799 120.497 138.206C120.546 137.613 121.073 137.128 121.666 137.128H131.717C132.309 137.128 132.754 137.613 132.704 138.206C132.654 138.799 132.128 139.284 131.535 139.284Z" fill="#3C3174"/>
<path d="M128.93 149.456H142.004C142.884 149.456 143.544 150.176 143.47 151.056L143.274 153.389C143.2 154.268 142.419 154.988 141.54 154.988H128.466C127.586 154.988 126.926 154.268 127 153.389L127.196 151.056C127.27 150.176 128.051 149.456 128.93 149.456Z" fill="#5570AD"/>
<path d="M129.952 152.951H129.188L129.051 153.31H128.364L129.37 151.135H130.104L130.734 153.31H130.03L129.952 152.951ZM129.853 152.48L129.68 151.698L129.375 152.48H129.853Z" fill="white"/>
<path d="M132.418 152.42L132.992 152.598C132.939 152.763 132.864 152.902 132.77 153.013C132.675 153.123 132.562 153.207 132.431 153.264C132.3 153.32 132.137 153.348 131.942 153.348C131.705 153.348 131.515 153.314 131.371 153.245C131.227 153.176 131.108 153.055 131.014 152.882C130.92 152.709 130.885 152.488 130.908 152.218C130.94 151.858 131.059 151.581 131.267 151.387C131.476 151.194 131.755 151.098 132.105 151.098C132.379 151.098 132.59 151.153 132.737 151.264C132.884 151.375 132.986 151.545 133.042 151.775L132.437 151.907C132.422 151.841 132.405 151.792 132.385 151.762C132.351 151.711 132.309 151.67 132.257 151.643C132.205 151.615 132.145 151.602 132.078 151.602C131.926 151.602 131.803 151.663 131.712 151.786C131.642 151.876 131.6 152.019 131.583 152.214C131.562 152.455 131.584 152.62 131.65 152.71C131.715 152.799 131.814 152.844 131.947 152.844C132.075 152.844 132.176 152.807 132.248 152.735C132.32 152.662 132.377 152.557 132.418 152.42Z" fill="white"/>
<path d="M134.783 152.42L135.357 152.598C135.304 152.763 135.229 152.902 135.135 153.013C135.04 153.123 134.927 153.207 134.796 153.264C134.665 153.32 134.502 153.348 134.307 153.348C134.07 153.348 133.88 153.314 133.736 153.245C133.592 153.176 133.473 153.055 133.379 152.882C133.285 152.709 133.25 152.488 133.273 152.218C133.305 151.858 133.424 151.581 133.632 151.387C133.841 151.194 134.12 151.098 134.47 151.098C134.744 151.098 134.955 151.153 135.102 151.264C135.249 151.375 135.351 151.545 135.408 151.775L134.802 151.907C134.787 151.841 134.77 151.792 134.75 151.762C134.716 151.711 134.674 151.67 134.622 151.643C134.57 151.615 134.51 151.602 134.443 151.602C134.291 151.602 134.169 151.663 134.077 151.786C134.007 151.876 133.965 152.019 133.948 152.214C133.927 152.455 133.949 152.62 134.015 152.71C134.08 152.799 134.179 152.844 134.312 152.844C134.44 152.844 134.541 152.807 134.613 152.735C134.685 152.662 134.741 152.557 134.783 152.42Z" fill="white"/>
<path d="M135.809 151.134H137.611L137.571 151.598H136.443L136.413 151.945H137.46L137.421 152.388H136.375L136.338 152.817H137.498L137.456 153.31H135.621L135.809 151.134Z" fill="white"/>
<path d="M138.003 151.134H139.121C139.364 151.134 139.542 151.192 139.653 151.307C139.764 151.423 139.811 151.588 139.792 151.802C139.773 152.022 139.692 152.193 139.549 152.317C139.406 152.441 139.199 152.502 138.928 152.502H138.56L138.49 153.31H137.814L138.003 151.134ZM138.598 152.062H138.763C138.892 152.062 138.986 152.039 139.042 151.994C139.098 151.949 139.13 151.891 139.136 151.821C139.142 151.753 139.124 151.695 139.083 151.648C139.041 151.6 138.958 151.576 138.832 151.576H138.641L138.598 152.062Z" fill="white"/>
<path d="M140.049 151.134H142.093L142.046 151.671H141.36L141.219 153.31H140.546L140.688 151.671H140.002L140.049 151.134Z" fill="white"/>
<path opacity="0.5" d="M112.175 173.299H105.55C104.761 173.299 104.17 172.654 104.236 171.864L104.792 165.239C104.859 164.451 105.559 163.805 106.347 163.805H112.972C113.761 163.805 114.353 164.45 114.286 165.239L113.73 171.864C113.664 172.654 112.964 173.299 112.175 173.299Z" fill="#5570AD"/>
<path opacity="0.25" d="M140.49 178.464H104.36C103.987 178.464 103.708 178.159 103.739 177.786C103.77 177.413 104.101 177.108 104.474 177.108H140.604C140.977 177.108 141.256 177.413 141.225 177.786C141.194 178.159 140.863 178.464 140.49 178.464Z" fill="#5570AD"/>
<path opacity="0.25" d="M133.496 178.464H104.36C103.987 178.464 103.708 178.159 103.739 177.786C103.771 177.413 104.101 177.108 104.474 177.108H133.61C133.983 177.108 134.263 177.413 134.231 177.786C134.2 178.159 133.869 178.464 133.496 178.464Z" fill="#5570AD"/>
<path opacity="0.2" d="M135.71 167.839H119.086C118.493 167.839 118.049 167.354 118.099 166.761C118.148 166.169 118.675 165.683 119.267 165.683H135.891C136.484 165.683 136.929 166.169 136.879 166.761C136.829 167.354 136.303 167.839 135.71 167.839Z" fill="#3C3174"/>
<path opacity="0.2" d="M128.836 171.421H118.785C118.192 171.421 117.747 170.936 117.797 170.343C117.847 169.75 118.373 169.265 118.966 169.265H129.016C129.609 169.265 130.053 169.75 130.004 170.343C129.955 170.936 129.429 171.421 128.836 171.421Z" fill="#3C3174"/>
<path opacity="0.1" d="M200.918 93.9996H161.39C159.027 93.9996 156.944 95.7862 156.76 97.9697L148.607 195.064H196.728L204.882 97.9697C205.065 95.7862 203.282 93.9996 200.918 93.9996Z" fill="#5570AD"/>
<path d="M199.69 96.3995H162.215C160.491 96.3995 158.961 97.8105 158.816 99.5352L156.929 122.01C156.784 123.734 158.076 125.145 159.802 125.145H197.276C199.001 125.145 200.531 123.734 200.676 122.01L202.563 99.5352C202.708 97.8105 201.415 96.3995 199.69 96.3995Z" fill="white"/>
<path d="M196.992 128.537H159.517C157.792 128.537 156.262 129.948 156.117 131.673L154.23 154.148C154.085 155.872 155.378 157.283 157.103 157.283H194.578C196.302 157.283 197.832 155.872 197.977 154.148L199.864 131.673C200.009 129.948 198.716 128.537 196.992 128.537Z" fill="white"/>
<path d="M194.292 160.675H156.817C155.093 160.675 153.563 162.086 153.418 163.81L151.531 186.285C151.386 188.01 152.678 189.421 154.404 189.421H191.878C193.603 189.421 195.133 188.01 195.278 186.285L197.165 163.81C197.31 162.086 196.017 160.675 194.292 160.675Z" fill="white"/>
<path opacity="0.5" d="M169.209 109.024H162.584C161.795 109.024 161.204 108.378 161.27 107.589L161.827 100.964C161.893 100.175 162.593 99.5291 163.382 99.5291H170.007C170.795 99.5291 171.387 100.174 171.321 100.964L170.764 107.589C170.698 108.378 169.998 109.024 169.209 109.024Z" fill="#5570AD"/>
<path opacity="0.25" d="M197.524 114.188H161.394C161.021 114.188 160.742 113.883 160.773 113.51C160.804 113.137 161.135 112.832 161.508 112.832H197.638C198.011 112.832 198.291 113.138 198.259 113.51C198.228 113.883 197.897 114.188 197.524 114.188Z" fill="#5570AD"/>
<path opacity="0.25" d="M176.897 114.188H161.394C161.021 114.188 160.742 113.883 160.773 113.51C160.804 113.137 161.135 112.832 161.508 112.832H177.012C177.385 112.832 177.664 113.138 177.633 113.51C177.601 113.883 177.27 114.188 176.897 114.188Z" fill="#5570AD"/>
<path opacity="0.2" d="M192.744 103.564H176.12C175.527 103.564 175.083 103.078 175.132 102.486C175.182 101.893 175.708 101.408 176.301 101.408H192.925C193.518 101.408 193.962 101.893 193.913 102.486C193.863 103.078 193.337 103.564 192.744 103.564Z" fill="#3C3174"/>
<path opacity="0.2" d="M185.87 107.146H175.819C175.226 107.146 174.782 106.66 174.832 106.068C174.881 105.475 175.408 104.99 176.001 104.99H186.052C186.644 104.99 187.089 105.475 187.039 106.068C186.989 106.66 186.463 107.146 185.87 107.146Z" fill="#3C3174"/>
<path opacity="0.5" d="M166.51 141.162H159.885C159.097 141.162 158.505 140.516 158.571 139.727L159.128 133.102C159.194 132.313 159.894 131.667 160.683 131.667H167.308C168.097 131.667 168.688 132.313 168.622 133.102L168.065 139.727C167.999 140.516 167.299 141.162 166.51 141.162Z" fill="#5570AD"/>
<path opacity="0.25" d="M194.825 146.326H158.695C158.322 146.326 158.042 146.021 158.074 145.648C158.105 145.275 158.436 144.97 158.809 144.97H194.939C195.312 144.97 195.591 145.276 195.56 145.648C195.529 146.021 195.198 146.326 194.825 146.326Z" fill="#5570AD"/>
<path opacity="0.25" d="M160.626 146.326H158.695C158.322 146.326 158.042 146.021 158.074 145.648C158.105 145.275 158.436 144.97 158.809 144.97H160.74C161.113 144.97 161.392 145.276 161.361 145.648C161.33 146.021 160.999 146.326 160.626 146.326Z" fill="#5570AD"/>
<path opacity="0.2" d="M190.045 135.701H173.421C172.828 135.701 172.383 135.216 172.433 134.623C172.483 134.03 173.009 133.545 173.602 133.545H190.226C190.818 133.545 191.263 134.03 191.213 134.623C191.164 135.216 190.638 135.701 190.045 135.701Z" fill="#3C3174"/>
<path opacity="0.2" d="M183.171 139.284H173.12C172.527 139.284 172.083 138.799 172.132 138.206C172.182 137.613 172.708 137.128 173.301 137.128H183.352C183.944 137.128 184.389 137.613 184.339 138.206C184.29 138.799 183.764 139.284 183.171 139.284Z" fill="#3C3174"/>
<path opacity="0.5" d="M163.812 173.299H157.187C156.398 173.299 155.806 172.654 155.873 171.864L156.429 165.239C156.496 164.451 157.195 163.805 157.984 163.805H164.609C165.398 163.805 165.99 164.45 165.923 165.239L165.367 171.864C165.3 172.654 164.6 173.299 163.812 173.299Z" fill="#5570AD"/>
<path opacity="0.5" d="M192.126 178.464H155.996C155.623 178.464 155.344 178.159 155.375 177.786C155.406 177.413 155.737 177.108 156.11 177.108H192.24C192.613 177.108 192.892 177.413 192.861 177.786C192.83 178.159 192.499 178.464 192.126 178.464Z" fill="#5570AD"/>
<path opacity="0.2" d="M187.346 167.839H170.723C170.13 167.839 169.685 167.354 169.735 166.761C169.785 166.169 170.311 165.683 170.904 165.683H187.528C188.12 165.683 188.565 166.169 188.515 166.761C188.465 167.354 187.939 167.839 187.346 167.839Z" fill="#3C3174"/>
<path opacity="0.2" d="M180.472 171.421H170.422C169.829 171.421 169.384 170.936 169.434 170.343C169.483 169.75 170.01 169.265 170.602 169.265H180.654C181.246 169.265 181.691 169.75 181.641 170.343C181.591 170.936 181.065 171.421 180.472 171.421Z" fill="#3C3174"/>
<path d="M177.868 181.594H190.942C191.821 181.594 192.481 182.314 192.407 183.193L192.211 185.526C192.138 186.406 191.357 187.126 190.477 187.126H177.403C176.524 187.126 175.864 186.406 175.938 185.526L176.134 183.193C176.208 182.314 176.988 181.594 177.868 181.594Z" fill="#5570AD"/>
<path d="M178.889 185.089H178.126L177.989 185.448H177.303L178.309 183.272H179.042L179.672 185.448H178.968L178.889 185.089ZM178.791 184.618L178.618 183.835L178.312 184.618H178.791Z" fill="white"/>
<path d="M181.356 184.557L181.93 184.736C181.876 184.901 181.802 185.039 181.707 185.15C181.613 185.261 181.499 185.345 181.368 185.401C181.238 185.457 181.074 185.486 180.88 185.486C180.643 185.486 180.453 185.451 180.309 185.382C180.165 185.313 180.046 185.193 179.952 185.02C179.858 184.846 179.823 184.625 179.846 184.355C179.877 183.995 179.997 183.718 180.205 183.525C180.413 183.332 180.693 183.235 181.043 183.235C181.317 183.235 181.528 183.291 181.675 183.402C181.822 183.512 181.924 183.683 181.981 183.912L181.375 184.044C181.36 183.978 181.343 183.929 181.323 183.899C181.29 183.847 181.247 183.807 181.195 183.78C181.143 183.752 181.084 183.738 181.016 183.738C180.864 183.738 180.741 183.8 180.65 183.922C180.58 184.013 180.538 184.157 180.521 184.351C180.5 184.592 180.522 184.758 180.588 184.847C180.654 184.937 180.752 184.981 180.885 184.981C181.014 184.981 181.114 184.945 181.186 184.873C181.258 184.8 181.315 184.695 181.356 184.557Z" fill="white"/>
<path d="M183.721 184.557L184.295 184.736C184.241 184.901 184.167 185.039 184.072 185.15C183.978 185.261 183.865 185.345 183.733 185.401C183.603 185.457 183.439 185.486 183.245 185.486C183.008 185.486 182.818 185.451 182.674 185.382C182.53 185.313 182.411 185.193 182.317 185.02C182.223 184.846 182.188 184.625 182.211 184.355C182.242 183.995 182.362 183.718 182.57 183.525C182.778 183.332 183.057 183.235 183.407 183.235C183.681 183.235 183.892 183.291 184.04 183.402C184.187 183.512 184.289 183.683 184.345 183.912L183.74 184.044C183.725 183.978 183.707 183.929 183.687 183.899C183.654 183.847 183.611 183.807 183.559 183.78C183.507 183.752 183.448 183.738 183.38 183.738C183.228 183.738 183.106 183.8 183.014 183.922C182.945 184.013 182.902 184.157 182.885 184.351C182.865 184.592 182.886 184.758 182.952 184.847C183.018 184.937 183.117 184.981 183.25 184.981C183.378 184.981 183.479 184.945 183.551 184.873C183.623 184.8 183.679 184.695 183.721 184.557Z" fill="white"/>
<path d="M184.746 183.272H186.549L186.509 183.737H185.38L185.35 184.083H186.397L186.359 184.527H185.312L185.275 184.955H186.436L186.393 185.448H184.559L184.746 183.272Z" fill="white"/>
<path d="M186.94 183.272H188.058C188.302 183.272 188.479 183.33 188.591 183.446C188.702 183.561 188.748 183.726 188.73 183.94C188.711 184.16 188.63 184.331 188.487 184.455C188.344 184.579 188.137 184.641 187.866 184.641H187.498L187.427 185.448H186.752L186.94 183.272ZM187.536 184.2H187.7C187.83 184.2 187.923 184.177 187.98 184.132C188.036 184.087 188.067 184.03 188.073 183.959C188.079 183.891 188.062 183.833 188.02 183.786C187.979 183.738 187.895 183.715 187.769 183.715H187.578L187.536 184.2Z" fill="white"/>
<path d="M188.986 183.272H191.03L190.984 183.809H190.298L190.156 185.448H189.484L189.625 183.809H188.939L188.986 183.272Z" fill="white"/>
<path opacity="0.1" d="M252.555 93.9996H213.027C210.663 93.9996 208.58 95.7862 208.397 97.9697L200.243 195.064H248.364L256.518 97.9697C256.701 95.7862 254.918 93.9996 252.555 93.9996Z" fill="#5570AD"/>
<path d="M251.326 96.3995H213.852C212.127 96.3995 210.597 97.8105 210.452 99.5352L208.565 122.01C208.42 123.734 209.713 125.145 211.438 125.145H248.913C250.637 125.145 252.167 123.734 252.312 122.01L254.199 99.5352C254.344 97.8105 253.051 96.3995 251.326 96.3995Z" fill="white"/>
<path d="M248.628 128.537H211.153C209.428 128.537 207.898 129.948 207.754 131.673L205.866 154.148C205.722 155.872 207.014 157.283 208.739 157.283H246.214C247.939 157.283 249.469 155.872 249.613 154.148L251.5 131.673C251.645 129.948 250.352 128.537 248.628 128.537Z" fill="white"/>
<path d="M245.929 160.675H208.454C206.73 160.675 205.2 162.086 205.055 163.81L203.168 186.285C203.023 188.01 204.315 189.421 206.04 189.421H243.515C245.24 189.421 246.77 188.01 246.914 186.285L248.802 163.81C248.946 162.086 247.654 160.675 245.929 160.675Z" fill="white"/>
<path opacity="0.5" d="M220.846 109.024H214.221C213.432 109.024 212.841 108.378 212.907 107.589L213.463 100.964C213.53 100.175 214.23 99.5291 215.018 99.5291H221.643C222.432 99.5291 223.024 100.174 222.957 100.964L222.401 107.589C222.334 108.378 221.635 109.024 220.846 109.024Z" fill="#5570AD"/>
<path opacity="0.5" d="M249.16 114.188H213.03C212.657 114.188 212.378 113.883 212.409 113.51C212.441 113.137 212.771 112.832 213.144 112.832H249.274C249.648 112.832 249.927 113.138 249.895 113.51C249.864 113.883 249.534 114.188 249.16 114.188Z" fill="#5570AD"/>
<path opacity="0.2" d="M244.38 103.564H227.756C227.163 103.564 226.719 103.078 226.768 102.486C226.818 101.893 227.344 101.408 227.937 101.408H244.561C245.154 101.408 245.598 101.893 245.548 102.486C245.499 103.078 244.973 103.564 244.38 103.564Z" fill="#3C3174"/>
<path opacity="0.2" d="M237.506 107.146H227.455C226.862 107.146 226.418 106.66 226.467 106.068C226.517 105.475 227.043 104.99 227.636 104.99H237.687C238.28 104.99 238.724 105.475 238.675 106.068C238.625 106.66 238.099 107.146 237.506 107.146Z" fill="#3C3174"/>
<path opacity="0.5" d="M218.147 141.162H211.522C210.733 141.162 210.141 140.516 210.208 139.727L210.764 133.102C210.831 132.313 211.53 131.667 212.319 131.667H218.944C219.733 131.667 220.324 132.313 220.258 133.102L219.702 139.727C219.635 140.516 218.936 141.162 218.147 141.162Z" fill="#5570AD"/>
<path opacity="0.5" d="M246.461 146.326H210.331C209.958 146.326 209.679 146.021 209.71 145.648C209.741 145.275 210.072 144.97 210.445 144.97H246.575C246.948 144.97 247.227 145.276 247.196 145.648C247.165 146.021 246.834 146.326 246.461 146.326Z" fill="#5570AD"/>
<path opacity="0.2" d="M241.682 135.701H225.058C224.465 135.701 224.02 135.216 224.07 134.623C224.12 134.03 224.646 133.545 225.239 133.545H241.862C242.455 133.545 242.899 134.03 242.85 134.623C242.8 135.216 242.274 135.701 241.682 135.701Z" fill="#3C3174"/>
<path opacity="0.2" d="M234.808 139.284H224.757C224.164 139.284 223.72 138.799 223.769 138.206C223.819 137.613 224.345 137.128 224.938 137.128H234.989C235.582 137.128 236.026 137.613 235.977 138.206C235.926 138.799 235.4 139.284 234.808 139.284Z" fill="#3C3174"/>
<path d="M232.203 149.456H245.277C246.157 149.456 246.817 150.176 246.743 151.056L246.547 153.389C246.473 154.268 245.692 154.988 244.813 154.988H231.739C230.859 154.988 230.2 154.268 230.273 153.389L230.469 151.056C230.543 150.176 231.323 149.456 232.203 149.456Z" fill="#5570AD"/>
<path d="M233.224 152.951H232.461L232.324 153.31H231.638L232.644 151.135H233.377L234.007 153.31H233.303L233.224 152.951ZM233.126 152.48L232.953 151.698L232.647 152.48H233.126Z" fill="white"/>
<path d="M235.691 152.42L236.265 152.598C236.211 152.763 236.137 152.902 236.042 153.013C235.948 153.123 235.834 153.207 235.703 153.264C235.573 153.32 235.409 153.348 235.215 153.348C234.978 153.348 234.788 153.314 234.644 153.245C234.5 153.176 234.381 153.055 234.287 152.882C234.193 152.709 234.158 152.488 234.181 152.218C234.212 151.858 234.332 151.581 234.54 151.387C234.748 151.194 235.027 151.098 235.377 151.098C235.651 151.098 235.862 151.153 236.01 151.264C236.157 151.375 236.259 151.545 236.315 151.775L235.71 151.907C235.695 151.841 235.677 151.792 235.657 151.762C235.624 151.711 235.581 151.67 235.529 151.643C235.477 151.615 235.418 151.602 235.35 151.602C235.198 151.602 235.076 151.663 234.984 151.786C234.915 151.876 234.872 152.019 234.855 152.214C234.835 152.455 234.856 152.62 234.922 152.71C234.988 152.799 235.087 152.844 235.22 152.844C235.348 152.844 235.449 152.807 235.521 152.735C235.593 152.663 235.65 152.557 235.691 152.42Z" fill="white"/>
<path d="M238.056 152.42L238.63 152.598C238.576 152.763 238.502 152.902 238.407 153.013C238.313 153.123 238.2 153.207 238.068 153.264C237.938 153.32 237.774 153.348 237.579 153.348C237.343 153.348 237.153 153.314 237.009 153.245C236.865 153.176 236.746 153.055 236.652 152.882C236.558 152.709 236.523 152.488 236.546 152.218C236.577 151.858 236.697 151.581 236.905 151.387C237.113 151.194 237.392 151.098 237.742 151.098C238.016 151.098 238.227 151.153 238.375 151.264C238.522 151.375 238.624 151.545 238.68 151.775L238.075 151.907C238.06 151.841 238.042 151.792 238.022 151.762C237.989 151.711 237.946 151.67 237.894 151.643C237.842 151.615 237.783 151.602 237.715 151.602C237.563 151.602 237.441 151.663 237.349 151.786C237.28 151.876 237.237 152.019 237.22 152.214C237.2 152.455 237.221 152.62 237.287 152.71C237.353 152.799 237.452 152.844 237.585 152.844C237.713 152.844 237.814 152.807 237.886 152.735C237.958 152.662 238.015 152.557 238.056 152.42Z" fill="white"/>
<path d="M239.081 151.134H240.884L240.843 151.598H239.715L239.685 151.945H240.732L240.694 152.388H239.647L239.61 152.817H240.771L240.728 153.31H238.893L239.081 151.134Z" fill="white"/>
<path d="M241.275 151.134H242.393C242.637 151.134 242.814 151.192 242.926 151.307C243.037 151.423 243.083 151.588 243.065 151.802C243.046 152.022 242.965 152.193 242.822 152.317C242.679 152.441 242.472 152.502 242.201 152.502H241.833L241.762 153.31H241.087L241.275 151.134ZM241.871 152.062H242.035C242.165 152.062 242.258 152.039 242.315 151.994C242.371 151.949 242.402 151.891 242.408 151.821C242.414 151.753 242.397 151.695 242.355 151.648C242.314 151.6 242.23 151.576 242.104 151.576H241.913L241.871 152.062Z" fill="white"/>
<path d="M243.321 151.134H245.365L245.319 151.671H244.633L244.491 153.31H243.819L243.96 151.671H243.274L243.321 151.134Z" fill="white"/>
<path opacity="0.5" d="M215.448 173.299H208.823C208.034 173.299 207.443 172.654 207.509 171.864L208.065 165.239C208.132 164.451 208.832 163.805 209.62 163.805H216.245C217.034 163.805 217.626 164.45 217.559 165.239L217.003 171.864C216.936 172.654 216.237 173.299 215.448 173.299Z" fill="#5570AD"/>
<path opacity="0.25" d="M243.762 178.464H207.632C207.259 178.464 206.98 178.159 207.011 177.786C207.043 177.413 207.373 177.108 207.746 177.108H243.876C244.249 177.108 244.529 177.413 244.497 177.786C244.467 178.159 244.136 178.464 243.762 178.464Z" fill="#5570AD"/>
<path opacity="0.2" d="M238.982 167.839H222.358C221.765 167.839 221.321 167.354 221.37 166.761C221.42 166.169 221.946 165.683 222.539 165.683H239.163C239.756 165.683 240.2 166.169 240.151 166.761C240.101 167.354 239.575 167.839 238.982 167.839Z" fill="#3C3174"/>
<path opacity="0.2" d="M232.109 171.421H222.058C221.465 171.421 221.02 170.936 221.07 170.343C221.12 169.75 221.646 169.265 222.239 169.265H232.289C232.882 169.265 233.326 169.75 233.277 170.343C233.227 170.936 232.702 171.421 232.109 171.421Z" fill="#3C3174"/>
<path d="M72.581 90.5321C72.6411 94.2624 72.8433 100.884 70.8633 103.203C70.8633 103.203 77.6579 105.126 82.6903 110.893C85.3983 106.459 81.8665 104.077 81.8665 104.077C77.9633 102.819 78.7283 100.373 79.5471 97.6698L72.581 90.5321Z" fill="#B55B52"/>
<path d="M69.1711 109.944L66.8725 114.375L64.5963 118.817C63.8577 120.298 63.1327 121.777 62.4642 123.237C62.1324 123.966 61.8294 124.696 61.5471 125.393C61.271 126.076 61.0306 126.793 60.9274 127.221L60.9255 126.229C60.9937 127.06 61.1546 127.969 61.4163 128.896C61.6842 129.823 62.0066 130.782 62.406 131.734C62.7947 132.692 63.2385 133.652 63.7143 134.611C64.1788 135.561 64.7203 136.549 65.1992 137.445L65.2643 137.567C65.7432 138.464 65.4051 139.579 64.5081 140.058C63.8289 140.421 63.0232 140.313 62.4648 139.851C61.4726 139.027 60.655 138.201 59.8312 137.291C59.0199 136.388 58.2662 135.425 57.5595 134.403C56.869 133.372 56.2117 132.286 55.6658 131.1C55.1193 129.915 54.6461 128.639 54.3631 127.232C54.308 126.957 54.3005 126.683 54.3362 126.419L54.3619 126.24C54.5346 124.991 54.8026 124.08 55.0761 123.158C55.3503 122.25 55.6652 121.398 55.9807 120.556C56.6142 118.88 57.3022 117.269 58.0233 115.683C58.7364 114.094 59.4969 112.539 60.2719 110.995C61.0563 109.45 61.8494 107.942 62.7227 106.412C63.73 104.649 65.976 104.037 67.7389 105.044C69.4566 106.025 70.0826 108.181 69.1824 109.922L69.1711 109.944Z" fill="#B55B52"/>
<path d="M67.4302 138.756L66.5789 138.217L64.1644 136.671L62.4423 139.238C63.0689 141.717 65.5848 142.937 65.5848 142.937L66.5432 143.156C67.2543 143.319 67.8972 142.965 68.1589 142.267L68.4362 141.528C68.7905 140.582 68.3361 139.329 67.4302 138.756Z" fill="#B55B52"/>
<path d="M115.516 127.758L126.852 121.246C127.615 120.807 128.543 121.104 128.916 121.905L129.903 124.028C130.276 124.829 129.956 125.842 129.193 126.28L117.857 132.793C117.094 133.232 116.166 132.935 115.793 132.134L114.806 130.011C114.433 129.21 114.753 128.197 115.516 127.758Z" fill="#5570AD"/>
<path d="M118.142 130.28L117.48 130.66L117.54 131.04L116.945 131.382L116.733 128.994L117.369 128.628L118.999 130.201L118.389 130.552L118.142 130.28ZM117.822 129.921L117.283 129.329L117.408 130.159L117.822 129.921Z" fill="white"/>
<path d="M120.016 128.59L120.603 128.459C120.638 128.629 120.643 128.786 120.616 128.929C120.589 129.072 120.533 129.201 120.447 129.315C120.362 129.429 120.235 129.535 120.066 129.632C119.86 129.75 119.679 129.815 119.519 129.827C119.36 129.839 119.197 129.794 119.029 129.69C118.861 129.587 118.72 129.412 118.606 129.167C118.454 128.84 118.419 128.54 118.504 128.269C118.588 127.997 118.782 127.774 119.086 127.599C119.324 127.463 119.534 127.406 119.717 127.428C119.9 127.451 120.073 127.548 120.236 127.719L119.777 128.135C119.731 128.085 119.691 128.052 119.659 128.035C119.604 128.007 119.547 127.994 119.489 127.996C119.43 127.998 119.371 128.015 119.313 128.049C119.181 128.125 119.105 128.239 119.087 128.391C119.072 128.504 119.106 128.649 119.188 128.826C119.291 129.046 119.393 129.178 119.493 129.223C119.595 129.268 119.703 129.258 119.818 129.191C119.929 129.127 119.998 129.046 120.025 128.947C120.052 128.85 120.049 128.73 120.016 128.59Z" fill="white"/>
<path d="M122.067 127.412L122.653 127.281C122.689 127.451 122.693 127.608 122.667 127.751C122.64 127.894 122.583 128.023 122.498 128.137C122.412 128.251 122.285 128.357 122.116 128.454C121.911 128.572 121.729 128.637 121.57 128.649C121.411 128.661 121.247 128.615 121.08 128.512C120.912 128.409 120.771 128.234 120.656 127.989C120.504 127.661 120.47 127.362 120.554 127.09C120.639 126.819 120.832 126.596 121.137 126.422C121.374 126.285 121.585 126.228 121.768 126.251C121.95 126.274 122.124 126.371 122.287 126.541L121.828 126.958C121.781 126.908 121.743 126.874 121.709 126.858C121.655 126.829 121.598 126.816 121.54 126.818C121.481 126.82 121.422 126.838 121.364 126.871C121.232 126.947 121.156 127.061 121.138 127.213C121.123 127.326 121.157 127.472 121.239 127.649C121.341 127.869 121.443 128.001 121.545 128.046C121.646 128.091 121.754 128.08 121.869 128.014C121.98 127.95 122.049 127.869 122.076 127.77C122.102 127.671 122.099 127.552 122.067 127.412Z" fill="white"/>
<path d="M122.315 125.787L123.878 124.889L124.074 125.312L123.096 125.874L123.242 126.189L124.15 125.668L124.338 126.071L123.43 126.593L123.612 126.984L124.618 126.405L124.827 126.853L123.236 127.767L122.315 125.787Z" fill="white"/>
<path d="M124.218 124.694L125.187 124.137C125.398 124.016 125.581 123.978 125.735 124.023C125.889 124.068 126.011 124.187 126.101 124.382C126.194 124.582 126.21 124.771 126.148 124.95C126.086 125.128 125.937 125.285 125.702 125.42L125.383 125.603L125.725 126.338L125.139 126.674L124.218 124.694ZM125.196 125.202L125.339 125.12C125.452 125.055 125.52 124.99 125.547 124.922C125.574 124.855 125.572 124.789 125.542 124.726C125.514 124.664 125.469 124.622 125.41 124.602C125.35 124.581 125.266 124.602 125.157 124.665L124.991 124.76L125.196 125.202Z" fill="white"/>
<path d="M125.992 123.674L127.764 122.656L127.991 123.145L127.397 123.487L128.09 124.978L127.507 125.313L126.813 123.821L126.218 124.163L125.992 123.674Z" fill="white"/>
<path d="M111.873 128.784L109.987 129.635C109.225 129.979 108.877 130.869 109.204 131.638L109.873 133.21C110.043 133.609 110.397 133.902 110.822 133.99C112.421 134.319 114.73 133.402 116.395 132.57C117.542 131.997 117.937 130.559 117.238 129.486L116.512 128.373C115.88 127.402 114.587 127.112 113.6 127.72L111.873 128.784Z" fill="#B55B52"/>
<path d="M65.9466 103.503C62.657 104.959 59.6459 108.436 57.1883 114.86C57.9789 117.508 66.1182 121.849 66.1182 121.849C66.1182 121.849 76.2744 100.311 65.9466 103.503Z" fill="#3C3174"/>
<path d="M93.1294 111.73C93.1012 114.12 97.0513 119.646 92.4959 122.849C92.1022 127.678 91.5682 132.43 90.5334 140.347H66.2252C68.5376 131.598 66.5401 125.696 62.8316 110.288C61.9715 106.716 64.3747 103.285 67.9943 102.919C68.9614 102.822 69.9862 102.74 71.0373 102.69C75.1213 102.492 78.4685 102.362 82.0749 102.69C83.2699 102.799 84.5069 102.95 85.6888 103.115C89.9531 103.711 93.1795 107.447 93.1294 111.73Z" fill="#3C3174"/>
<path d="M82.1688 101.945C76.5636 100.517 64.5638 100.66 62.3815 102.373C60.1999 104.087 64.7891 106.942 65.0527 107.171C63.4726 108.056 65.0527 112.624 71.6357 113.881C78.2187 115.137 79.6679 106.983 81.5666 105.286C82.5369 104.419 83.0727 103.068 82.1688 101.945Z" fill="#5570AD"/>
<path opacity="0.2" d="M65.9466 106.977C69.2425 107.428 76.2813 105.863 78.6745 105.133C75.6071 106.768 67.7627 109.758 65.9466 106.977Z" fill="black"/>
<path d="M92.3776 108.833C92.7175 110.5 93.0474 112.257 93.4224 113.959C93.7842 115.673 94.1642 117.379 94.5592 119.067C94.963 120.751 95.3886 122.422 95.8669 124.024C96.106 124.822 96.3696 125.605 96.6375 126.341C96.9061 127.07 97.2072 127.768 97.4876 128.277L96.2607 127.141C96.2531 127.136 96.2431 127.134 96.2325 127.137C96.215 127.14 96.2788 127.161 96.2976 127.174C96.3358 127.203 96.4704 127.245 96.5624 127.284C96.7896 127.363 97.0644 127.443 97.3524 127.525C97.9365 127.685 98.5837 127.824 99.2385 127.953C100.554 128.205 101.924 128.451 103.303 128.664L107.475 129.322C108.87 129.56 110.283 129.762 111.673 130.013L111.695 130.017C112.695 130.197 113.359 131.155 113.179 132.155C113.032 132.966 112.373 133.556 111.596 133.654C110.137 133.836 108.703 133.931 107.252 134.035C105.803 134.12 104.353 134.166 102.891 134.181C101.43 134.179 99.9603 134.17 98.4498 134.059C97.6917 134.004 96.9286 133.938 96.1148 133.823C95.7041 133.765 95.2835 133.692 94.8234 133.583C94.5755 133.516 94.3626 133.473 94.069 133.372C93.9219 133.32 93.813 133.293 93.6352 133.218C93.4631 133.146 93.2915 133.069 93.1225 132.99C92.6618 132.772 92.2899 132.442 92.0251 132.048L91.8962 131.854C91.2201 130.842 90.7556 129.912 90.3255 128.99C89.8974 128.071 89.5543 127.164 89.2188 126.264C88.5521 124.464 88.0043 122.68 87.5092 120.891C87.0052 119.105 86.5752 117.316 86.1783 115.523C85.7996 113.718 85.4233 111.956 85.1341 110.091C84.823 108.085 86.1971 106.205 88.2034 105.894C90.1496 105.592 91.9757 106.876 92.3676 108.784L92.3776 108.833Z" fill="#B55B52"/>
<path d="M87.7577 103.679C90.7594 105.166 93.7317 108.036 94.9668 114.684C94.1855 117.304 83.469 122.357 83.469 122.357C83.469 122.357 77.5026 99.8464 87.7577 103.679Z" fill="#3C3174"/>
<path d="M87.3358 87.6374C87.2763 88.1137 87.4823 88.5394 87.7959 88.5883C88.1095 88.6371 88.4125 88.2903 88.472 87.8139C88.5315 87.3375 88.3255 86.9118 88.0119 86.863C87.6976 86.8148 87.3953 87.161 87.3358 87.6374Z" fill="#3C3174"/>
<path d="M87.8698 86.868L89.0636 86.7172C89.0636 86.7172 88.3606 87.5191 87.8698 86.868Z" fill="#3C3174"/>
<path d="M87.471 88.1595C87.471 88.1595 88.0288 90.3368 88.8012 91.4654C88.0939 91.9537 87.0503 91.518 87.0503 91.518L87.471 88.1595Z" fill="#A02724"/>
<path d="M88.4444 84.361C88.5152 84.3591 88.584 84.3309 88.6354 84.2771C88.7418 84.1657 88.7349 83.986 88.6203 83.8765C87.4685 82.776 86.1927 83.0382 86.1389 83.0501C85.9868 83.0833 85.8941 83.2342 85.9323 83.3869C85.9705 83.5397 86.1245 83.6361 86.276 83.6041C86.3261 83.5929 87.3183 83.4038 88.2341 84.2796C88.2936 84.3366 88.3699 84.3635 88.4444 84.361Z" fill="#3C3174"/>
<path d="M71.6689 83.6123C71.2914 89.5173 71.0072 92.0051 73.5506 95.4618C77.3768 100.661 84.6139 100.032 86.7242 94.407C88.6235 89.3439 88.9221 80.538 83.5554 77.3304C78.2682 74.1703 72.0464 77.7072 71.6689 83.6123Z" fill="#B55B52"/>
<path d="M83.258 88.9439C87.2751 87.3789 86.7467 82.8924 84.6634 81.1189C88.7355 82.7885 91.5369 81.4839 88.467 77.0499C85.3971 72.616 68.5364 71.677 70.8632 78.563C63.365 76.1479 65.556 86.1444 65.9466 92.6999C60.5136 98.1774 74.0358 102.924 82.5857 100.16C91.135 97.3949 83.258 88.9439 83.258 88.9439Z" fill="#3C3174"/>
<path d="M81.7174 88.1169C82.1851 89.6205 82.3535 90.2616 83.2599 90.9809C84.6233 92.0632 86.2209 91.4842 86.1758 89.9498C86.1351 88.5689 85.377 86.3416 83.8483 85.8489C82.3422 85.3638 81.2498 86.6132 81.7174 88.1169Z" fill="#B55B52"/>
<path d="M90.5334 140.347C90.5334 140.347 91.3923 171.732 92.536 192.38C93.7491 211.327 95.3091 255.641 95.3091 255.641L90.5246 255.891C90.5246 255.891 79.9277 218.605 80.3772 196.072C67.941 164.56 72.4132 141.291 72.4132 141.291L90.5334 140.347Z" fill="#B55B52"/>
<path d="M94.9517 253.659C95.1671 253.507 95.4557 253.5 95.6841 253.644C97.3061 254.667 99.0908 256.088 103.631 256.289C106.811 256.429 106.025 258.179 101.475 258.747C96.1255 259.414 94.9786 260.512 93.2503 260.947C91.5845 261.367 90.1522 260.063 90.1822 256.436C90.1841 256.183 90.3494 255.958 90.5854 255.865C93.0293 254.906 94.3777 254.064 94.9517 253.659Z" fill="#3C3174"/>
<path d="M84.1808 140.347C84.1808 140.347 75.4224 177.491 70.3374 194.776C64.997 212.929 60.7702 254.359 60.7997 255.733H56.6568C56.6568 255.733 51.3051 222.153 57.937 194.758C58.5467 150.328 66.2246 140.346 66.2246 140.346L84.1808 140.347Z" fill="#B55B52"/>
<path d="M60.9086 254.233C61.1421 254.138 61.3931 254.202 61.5433 254.397C62.6125 255.785 63.3888 257.325 66.5532 258.677C69.1668 259.794 67.7232 261.324 63.6279 260.761C58.8127 260.1 58.7476 260.884 57.1219 260.884C55.555 260.884 54.7387 259.268 55.92 255.758C56.002 255.514 56.2161 255.336 56.4483 255.304C58.8572 254.972 60.2857 254.486 60.9086 254.233Z" fill="#3C3174"/>
<path d="M56.4095 186.27C55.9225 190.86 55.0186 200.807 55.0186 200.807C55.0186 200.807 69.399 203.763 94.6562 202.276C94.526 199.251 94.4997 194.869 94.4997 194.869L56.4095 186.27Z" fill="#3C3174"/>
<path d="M90.5322 140.246C90.5322 140.246 95.9001 168.001 95.3085 201.502C74.1748 201.507 54.6167 197.468 54.6167 197.468C54.6167 197.468 55.3585 154.483 66.224 140.253C72.5034 138.744 90.3901 139.741 90.5322 140.246Z" fill="#5570AD"/>
<path opacity="0.2" d="M65.2073 157.334C72.5108 162.864 78.0528 163.914 78.0528 163.914C78.0528 163.914 72.0708 166.026 65.2073 157.334Z" fill="black"/>
<path d="M230.278 249.423C230.267 249.423 230.257 249.422 230.245 249.42C230.161 249.402 230.107 249.319 230.125 249.234C233.372 234.006 231.852 219.547 225.608 206.261C219.816 193.935 211.709 186.637 209.363 184.694C209.296 184.639 209.287 184.54 209.342 184.473C209.397 184.407 209.495 184.397 209.562 184.453C211.922 186.406 220.072 193.743 225.891 206.128C232.165 219.478 233.692 234.002 230.431 249.299C230.416 249.373 230.351 249.423 230.278 249.423Z" fill="#3C3174"/>
<path d="M236.132 220.894C234.58 224.467 231.508 226.574 231.508 226.574C231.508 226.574 230.953 222.89 232.505 219.318C234.058 215.745 237.13 213.638 237.13 213.638C237.13 213.638 237.685 217.322 236.132 220.894Z" fill="#3C3174"/>
<path d="M221.555 201.964C224.798 204.12 226.334 207.515 226.334 207.515C226.334 207.515 222.61 207.414 219.365 205.258C216.121 203.102 214.586 199.707 214.586 199.707C214.586 199.707 218.311 199.808 221.555 201.964Z" fill="#3C3174"/>
<path d="M219.086 186.452C219.702 190.298 218.25 193.728 218.25 193.728C218.25 193.728 215.798 190.924 215.181 187.078C214.565 183.231 216.017 179.801 216.017 179.801C216.017 179.801 218.469 182.606 219.086 186.452Z" fill="#5570AD"/>
<path d="M210.673 184.441C210.746 185.109 210.263 185.71 209.595 185.783C208.927 185.856 208.327 185.374 208.253 184.706C208.18 184.038 208.663 183.437 209.331 183.364C209.999 183.291 210.6 183.773 210.673 184.441Z" fill="#5570AD"/>
<path d="M233.954 246.313C233.892 246.313 233.835 246.277 233.81 246.217C228.544 233.686 227.492 221.038 230.682 208.623C233.641 197.105 239.409 189.519 241.107 187.469C241.162 187.402 241.261 187.392 241.327 187.448C241.394 187.503 241.404 187.602 241.348 187.669C239.661 189.707 233.928 197.246 230.985 208.701C227.812 221.049 228.859 233.63 234.098 246.096C234.132 246.176 234.095 246.267 234.014 246.301C233.994 246.309 233.974 246.313 233.954 246.313Z" fill="#3C3174"/>
<path d="M226.792 232.796C228.313 234.459 230.389 235.035 230.389 235.035C230.389 235.035 230.001 232.915 228.481 231.252C226.96 229.589 224.884 229.012 224.884 229.012C224.884 229.012 225.272 231.132 226.792 232.796Z" fill="#5570AD"/>
<path d="M231.345 209.286C229.92 211.376 229.825 213.793 229.825 213.793C229.825 213.793 232.041 212.823 233.466 210.733C234.891 208.643 234.985 206.226 234.985 206.226C234.985 206.226 232.77 207.197 231.345 209.286Z" fill="#5570AD"/>
<path d="M231.092 199.904C231.227 201.975 232.387 203.585 232.387 203.585C232.387 203.585 233.329 201.839 233.194 199.768C233.06 197.697 231.9 196.087 231.9 196.087C231.9 196.087 230.958 197.834 231.092 199.904Z" fill="#5570AD"/>
<path d="M238.942 191.955C237.186 193.061 236.324 194.848 236.324 194.848C236.324 194.848 238.308 194.844 240.064 193.738C241.82 192.633 242.683 190.845 242.683 190.845C242.683 190.845 240.698 190.85 238.942 191.955Z" fill="#5570AD"/>
<path d="M240.173 187.651C240.219 188.233 240.728 188.668 241.31 188.622C241.892 188.576 242.326 188.067 242.28 187.485C242.234 186.903 241.726 186.468 241.143 186.514C240.562 186.56 240.127 187.069 240.173 187.651Z" fill="#5570AD"/>
<path d="M244.003 256.503L243.416 256.285C243.795 255.262 243.988 254.11 243.988 252.862H244.614C244.614 254.185 244.409 255.41 244.003 256.503Z" fill="#5570AD"/>
<path d="M243.516 249.586C242.859 247.341 241.566 245.355 239.781 243.843L240.185 243.364C242.065 244.957 243.424 247.047 244.117 249.41L243.516 249.586Z" fill="#5570AD"/>
<path d="M236.609 243.635L237.878 238.433H226.474L227.743 243.635C224.307 245.289 221.93 248.794 221.93 252.863C221.93 258.522 226.518 260.566 232.177 260.566C237.836 260.566 242.424 258.522 242.424 252.863C242.424 248.793 240.045 245.289 236.609 243.635Z" fill="#5570AD"/>
</g>
<defs>
<clipPath id="clip0_2_909">
<rect width="313" height="313" fill="white"/>
</clipPath>
</defs>
</svg>
